# xmcd CD database file
#
# Track frame offsets:
#	150
#	22447
#	42222
#	54425
#	80432
#	97122
#	113322
#	132155
#	146970
#	160617
#	173415
#	201782
#	223405
#	250300
#
# Disc length: 3629 seconds
#
# Revision: 0
# Processed by: cddbd v1.5.2PL0 Copyright (c) Steve Scherf et al.
# Submitted via: CDex 1.70beta2
#
DISCID=c50e2b0e
DTITLE=No Regrets - Workin' Man's Blues
DYEAR=2000
DGENRE=Blues
TTITLE0=Bad Luck is Fallin'
TTITLE1=Last Request
TTITLE2=Love in the Kitchen
TTITLE3=Unpredictable
TTITLE4=Oh Darlin
TTITLE5=Big Leg Woman
TTITLE6=Ruff and Ready
TTITLE7=Workin' Man's Blues
TTITLE8=Got Nothin' I Want
TTITLE9=Motel King
TTITLE10=Promises (You Can't Keep)
TTITLE11=Tore Down
TTITLE12=Thrill is Gone
TTITLE13=Can't Dance (to the Blues)
EXTD=YEAR: 2000
EXTT0=
EXTT1=
EXTT2=
EXTT3=
EXTT4=
EXTT5=
EXTT6=
EXTT7=
EXTT8=
EXTT9=
EXTT10=
EXTT11=
EXTT12=
EXTT13=
PLAYORDER=
